<mxfile host="app.diagrams.net" modified="2024-05-28T09:39:42.894Z" agent="Mozilla/5.0 (Windows NT 10.0; Win64; x64) AppleWebKit/537.36 (KHTML, like Gecko) Chrome/125.0.0.0 Safari/537.36" etag="AODh2mRFtu7BRfr50j9m" version="24.4.9" type="device">
  <diagram name="Страница — 1" id="8S2lLraXN2uqVXYke-bZ">
    <mxGraphModel dx="1112" dy="1187" grid="0" gridSize="10" guides="1" tooltips="1" connect="1" arrows="1" fold="1" page="0" pageScale="1" pageWidth="827" pageHeight="1169" math="0" shadow="0">
      <root>
        <mxCell id="0" />
        <mxCell id="1" parent="0" />
        <mxCell id="gNs6UktlTs6cxbQNHmEu-8" style="edgeStyle=none;curved=1;rounded=0;orthogonalLoop=1;jettySize=auto;html=1;fontSize=12;startSize=8;endSize=8;exitX=1;exitY=0.25;exitDx=0;exitDy=0;entryX=0;entryY=0.25;entryDx=0;entryDy=0;" edge="1" parent="1" source="gNs6UktlTs6cxbQNHmEu-1" target="gNs6UktlTs6cxbQNHmEu-3">
          <mxGeometry relative="1" as="geometry">
            <mxPoint x="8" y="21" as="sourcePoint" />
            <mxPoint x="105" y="21" as="targetPoint" />
          </mxGeometry>
        </mxCell>
        <mxCell id="gNs6UktlTs6cxbQNHmEu-13" value="HTTP-запросы" style="edgeLabel;html=1;align=center;verticalAlign=middle;resizable=0;points=[];fontSize=12;" vertex="1" connectable="0" parent="gNs6UktlTs6cxbQNHmEu-8">
          <mxGeometry x="-0.1753" y="-1" relative="1" as="geometry">
            <mxPoint x="11" as="offset" />
          </mxGeometry>
        </mxCell>
        <mxCell id="gNs6UktlTs6cxbQNHmEu-1" value="&lt;div&gt;Vue3 + Quasar + D3.js&amp;nbsp;&amp;nbsp;&lt;span style=&quot;background-color: initial;&quot;&gt;+ Chart.js&amp;nbsp;&amp;nbsp;&lt;/span&gt;&lt;/div&gt;" style="rounded=0;whiteSpace=wrap;html=1;" vertex="1" parent="1">
          <mxGeometry x="-148" width="130" height="85" as="geometry" />
        </mxCell>
        <mxCell id="gNs6UktlTs6cxbQNHmEu-12" style="edgeStyle=none;curved=1;rounded=0;orthogonalLoop=1;jettySize=auto;html=1;entryX=1;entryY=0.75;entryDx=0;entryDy=0;fontSize=12;startSize=8;endSize=8;exitX=0;exitY=0.75;exitDx=0;exitDy=0;" edge="1" parent="1" source="gNs6UktlTs6cxbQNHmEu-3" target="gNs6UktlTs6cxbQNHmEu-1">
          <mxGeometry relative="1" as="geometry" />
        </mxCell>
        <mxCell id="gNs6UktlTs6cxbQNHmEu-14" value="данные" style="edgeLabel;html=1;align=center;verticalAlign=middle;resizable=0;points=[];fontSize=12;" vertex="1" connectable="0" parent="gNs6UktlTs6cxbQNHmEu-12">
          <mxGeometry x="0.1545" y="-1" relative="1" as="geometry">
            <mxPoint x="10" as="offset" />
          </mxGeometry>
        </mxCell>
        <mxCell id="gNs6UktlTs6cxbQNHmEu-3" value="FastAPI" style="rounded=0;whiteSpace=wrap;html=1;" vertex="1" parent="1">
          <mxGeometry x="105" width="127" height="85" as="geometry" />
        </mxCell>
        <mxCell id="gNs6UktlTs6cxbQNHmEu-11" style="edgeStyle=none;curved=1;rounded=0;orthogonalLoop=1;jettySize=auto;html=1;entryX=1;entryY=0.75;entryDx=0;entryDy=0;fontSize=12;startSize=8;endSize=8;exitX=0.027;exitY=0.772;exitDx=0;exitDy=0;exitPerimeter=0;" edge="1" parent="1" source="gNs6UktlTs6cxbQNHmEu-4" target="gNs6UktlTs6cxbQNHmEu-3">
          <mxGeometry relative="1" as="geometry" />
        </mxCell>
        <mxCell id="gNs6UktlTs6cxbQNHmEu-16" value="данные" style="edgeLabel;html=1;align=center;verticalAlign=middle;resizable=0;points=[];fontSize=12;" vertex="1" connectable="0" parent="gNs6UktlTs6cxbQNHmEu-11">
          <mxGeometry x="-0.1896" y="-3" relative="1" as="geometry">
            <mxPoint x="-12" y="2" as="offset" />
          </mxGeometry>
        </mxCell>
        <mxCell id="gNs6UktlTs6cxbQNHmEu-4" value="PostgreSQL" style="shape=cylinder3;whiteSpace=wrap;html=1;boundedLbl=1;backgroundOutline=1;size=15;" vertex="1" parent="1">
          <mxGeometry x="346" y="-7" width="74" height="92" as="geometry" />
        </mxCell>
        <mxCell id="gNs6UktlTs6cxbQNHmEu-5" value="Клиентская часть" style="text;html=1;align=center;verticalAlign=middle;resizable=0;points=[];autosize=1;strokeColor=none;fillColor=none;fontSize=16;" vertex="1" parent="1">
          <mxGeometry x="-157.5" y="-26.5" width="149" height="31" as="geometry" />
        </mxCell>
        <mxCell id="gNs6UktlTs6cxbQNHmEu-6" value="Серверная часть" style="text;html=1;align=center;verticalAlign=middle;resizable=0;points=[];autosize=1;strokeColor=none;fillColor=none;fontSize=16;" vertex="1" parent="1">
          <mxGeometry x="93" y="-26.5" width="145" height="31" as="geometry" />
        </mxCell>
        <mxCell id="gNs6UktlTs6cxbQNHmEu-7" value="БД" style="text;html=1;align=center;verticalAlign=middle;resizable=0;points=[];autosize=1;strokeColor=none;fillColor=none;fontSize=16;" vertex="1" parent="1">
          <mxGeometry x="363.5" y="-26.5" width="39" height="31" as="geometry" />
        </mxCell>
        <mxCell id="gNs6UktlTs6cxbQNHmEu-10" style="edgeStyle=none;curved=1;rounded=0;orthogonalLoop=1;jettySize=auto;html=1;entryX=0;entryY=0;entryDx=0;entryDy=27.5;entryPerimeter=0;fontSize=12;startSize=8;endSize=8;exitX=1;exitY=0.25;exitDx=0;exitDy=0;" edge="1" parent="1" source="gNs6UktlTs6cxbQNHmEu-3" target="gNs6UktlTs6cxbQNHmEu-4">
          <mxGeometry relative="1" as="geometry" />
        </mxCell>
        <mxCell id="gNs6UktlTs6cxbQNHmEu-15" value="SQL-запросы" style="edgeLabel;html=1;align=center;verticalAlign=middle;resizable=0;points=[];fontSize=12;" vertex="1" connectable="0" parent="gNs6UktlTs6cxbQNHmEu-10">
          <mxGeometry x="-0.0351" relative="1" as="geometry">
            <mxPoint x="2" as="offset" />
          </mxGeometry>
        </mxCell>
      </root>
    </mxGraphModel>
  </diagram>
</mxfile>
